<svg xmlns="http://www.w3.org/2000/svg" viewBox="0 0 64 64">
  <defs>
    <linearGradient id="g" x1="0%" y1="0%" x2="100%" y2="100%">
      <stop offset="0%" stop-color="#4f46e5" />
      <stop offset="100%" stop-color="#0ea5e9" />
    </linearGradient>
  </defs>
  <rect width="64" height="64" rx="14" fill="url(#g)" />
  <path
    d="M20 22c0-3.314 2.686-6 6-6h12c3.314 0 6 2.686 6 6v4h-6v-3a2 2 0 0 0-2-2h-8a2 2 0 0 0-2 2v6h12c3.314 0 6 2.686 6 6v7c0 3.314-2.686 6-6 6H26c-3.314 0-6-2.686-6-6v-4h6v3a2 2 0 0 0 2 2h8a2 2 0 0 0 2-2v-6H26c-3.314 0-6-2.686-6-6Z"
    fill="#fff"
  />
</svg>
